<svg version="1.1" xmlns="http://www.w3.org/2000/svg" viewBox="-739.7781019945608 -147.62697042390255 1479.5562039891213 287.22287537323604" fill="none" stroke="black" stroke-width="0.6%" vector-effect="non-scaling-stroke">
    <path d="M -738.7781 -104.17045 L -738.7781 -121.12226 L 0.02396 0.04372 L 738.7781 -25.46099 L -0.02396 -146.62697 L -738.7781 -121.12226" />
    <path d="M 0.02396 16.99552 L 0.02396 0.04372" />
    <path d="M 0.02188 16.99518 L 0.02396 16.99552 L 225.34034 9.21671 L 225.34034 108.93321 L 240.79164 108.39977" />
    <path d="M 0.02188 16.99518 L 0.02188 51.89596 L 205.7969 44.79179" />
    <path d="M -7.06735 50.7333 L 0.02188 51.89596" />
    <path d="M -7.06735 15.83253 L -7.06735 50.7333" />
    <path d="M -731.68679 -103.00746 L -7.06735 15.83253" />
    <path d="M -731.68679 -103.00746 L -731.68679 -68.10668 L -555.88838 -74.17594" />
    <path d="M -738.77602 -69.26934 L -731.68679 -68.10668" />
    <path d="M -738.77602 -104.17011 L -738.77602 -69.26934" />
    <path d="M -738.7781 -104.17045 L -738.77602 -104.17011" />
    <path d="M 738.7781 26.39159 L 738.7781 -25.46099" />
    <path d="M 723.3268 26.92503 L 738.7781 26.39159" />
    <path d="M 723.3268 -7.97575 L 723.3268 26.92503" />
    <path d="M 513.46172 -0.73037 L 723.3268 -7.97575" />
    <path d="M 513.46172 -0.73037 L 513.46172 98.98612" />
    <path d="M 498.01042 99.51956 L 513.46172 98.98612" />
    <path d="M 498.01042 -0.19693 L 498.01042 99.51956" />
    <path d="M 240.79164 8.68327 L 498.01042 -0.19693" />
    <path d="M 240.79164 8.68327 L 240.79164 108.39977" />
    <path d="M 0.02188 16.99518 L 225.33826 9.21637" />
    <path d="M -260.33092 -20.97143 A 30 27.1897 279.31378 0 0 -237.91914 7.69171" />
    <path d="M -533.001 -70.42233 L -533.001 -11.55778 L -525.91177 -10.39513" />
    <path d="M -533.001 -11.55778 A 30 27.1897 279.31378 0 0 -510.58922 17.10536" />
    <path d="M -260.33092 -25.56255 L -260.33092 -20.97143 L -253.24169 -19.80877" />
    <path d="M -199.28453 -15.55074 A 30 27.1897 99.31378 0 1 -230.82991 8.85437 L -237.91914 7.69171" />
    <path d="M -230.82991 8.85437 A 30 27.1897 99.31378 0 1 -253.24169 -19.80877" />
    <path d="M -233.70033 -21.19505 L -233.70033 -20.48342 L -218.08535 -17.92251 L -217.99607 -18.6195" />
    <path d="M -506.37041 -66.05483 L -506.37041 -11.06977 L -490.75543 -8.50886 L -475.30413 -9.0423" />
    <path d="M -525.91177 -69.25967 L -525.91177 -10.39513" />
    <path d="M -471.37775 -12.27786 A 30 27.1897 99.31378 0 1 -503.49999 18.26801 L -510.58922 17.10536" />
    <path d="M -503.49999 18.26801 A 30 27.1897 99.31378 0 1 -525.91177 -10.39513" />
    <path d="M -471.37775 -12.27786 L -471.37775 -39.6943" />
    <path d="M -253.24169 -24.3999 L -253.24169 -19.80877" />
    <path d="M 197.48222 63.30079 L 198.70767 73.26943" />
    <path d="M 197.48222 63.30079 A 20 8.31663 88.02271 0 0 189.55015 48.21943" />
    <path d="M -477.67154 -61.20713 L -7.06735 15.97351" />
    <path d="M 175.11014 45.85122 L 189.55015 48.21943" />
    <path d="M -477.67154 -61.20713 A 20 8.31663 88.02271 0 0 -478.3616 -61.25193 A 20 8.31663 88.02271 0 0 -485.60361 -48.72754 L -470.1523 -49.26098 L -475.30413 -9.0423" />
    <path d="M -490.75543 -8.50886 L -485.60361 -48.72754" />
    <path d="M 471.37775 99.03121 A 30 27.1897 279.31378 0 0 493.78952 127.69435 L 500.87875 128.857 A 30 27.1897 99.31378 0 1 478.46698 100.19386 L 471.37775 99.03121 L 471.37775 35.62289" />
    <path d="M 198.70767 108.44485 A 30 27.1897 279.31378 0 0 221.11944 137.10799 L 228.20867 138.27065 A 30 27.1897 99.31378 0 1 205.7969 109.60751 L 198.70767 108.44485 L 198.70767 45.03654" />
    <path d="M 533.001 98.31113 A 30 27.1897 99.31378 0 1 500.87875 128.857" />
    <path d="M 478.46698 100.19386 L 478.46698 35.37814" />
    <path d="M 260.33092 42.90906 L 478.46698 35.37814" />
    <path d="M 260.33092 42.90906 L 260.33092 107.72478 A 30 27.1897 99.31378 0 1 228.20867 138.27065" />
    <path d="M 205.7969 109.60751 L 205.7969 44.79179" />
    <path d="M 225.33826 108.93287 L 225.33826 9.21637" />
    <path d="M 225.33826 108.93287 L 240.78956 108.39943" />
    <path d="M 498.00834 99.51922 L 498.00834 -0.19728" />
    <path d="M 498.00834 99.51922 L 513.45964 98.98578" />
    <path d="M 723.32471 26.92469 L 723.32471 -7.97609" />
    <path d="M 533.001 33.49541 L 723.32471 26.92469 L 723.3268 26.92503" />
    <path d="M 533.001 33.49541 L 533.001 98.31113" />
    <path d="M 225.33826 108.93287 L 225.34034 108.93321" />
    <path d="M 498.00834 99.51922 L 498.01042 99.51956" />
    <path d="M -218.08535 -17.92251 L -214.5008 -18.04626" />
    <path d="M 470.1523 53.88715 L 471.37775 63.85578" />
    <path d="M 470.1523 53.88715 A 20 8.31663 88.02271 0 0 462.22023 38.80578" />
    <path d="M 447.78022 36.43757 L 462.22023 38.80578" />
    <path d="M -466.66462 -59.40196 A 20 8.31663 88.02271 0 0 -470.1523 -49.26098" />
</svg>